<svg xmlns="http://www.w3.org/2000/svg" viewBox="0 0 366.75 208.67"><defs><style>.cls-1{fill:#bfaa84;}.cls-2{fill:#fff;}</style></defs><g id="Layer_2" data-name="Layer 2"><g id="Layer_1-2" data-name="Layer 1"><path class="cls-1" d="M19.2,96.42c.53,29.6,16.33,51.34,38.44,69.89-.33,0-.58,0-.73-.1-18.7-12.78-32-29.47-37.53-51.83a74.06,74.06,0,0,1-2-22.35,6.75,6.75,0,0,1,3.23-5.2c4.59-3.29,9.92-4.83,15.29-6.14a176.8,176.8,0,0,1,33.81-4.62c21.34-1,42.65-.23,63.95.79a6.58,6.58,0,0,0,2.79-.41c-1.62-1.66-3.13-3.46-4.89-5-11.75-10-25-17.48-38.95-24C87.4,45.07,82,43,76.82,40.37a35.7,35.7,0,0,1-8.58-6.18C63.52,29.52,63.1,24,66.49,18.31S74.86,8.82,80.1,5.18C82.64,3.42,85.32,1.85,88.23,0,85.58,3.64,83,6.81,80.84,10.23c-5.71,8.89-4.46,15,4.12,21.2a71.65,71.65,0,0,0,16.51,8.49A3.53,3.53,0,0,1,103.16,41c-1.55-.44-3.1-.86-4.63-1.33-6.08-1.87-12-4.09-17.34-7.66a26.14,26.14,0,0,1-3.07-2.37c-5.21-4.78-5.83-8.72-2.53-15.51-3.28,1.22-7.55,6.45-8.07,9.79-.58,3.74,1.09,6.49,3.77,8.78,3.65,3.11,8,4.94,12.44,6.52,12.79,4.54,25.65,9,37.5,15.69a88.78,88.78,0,0,1,11.48,7.84c6.9,5.51,11.22,12.57,11.75,21.71,3.75-5,5-10.35,2.71-16.4a12.55,12.55,0,0,1,4.39,8c.24,1.86,1,2.6,2.69,2.88a15.12,15.12,0,0,1,4.28,1.36L152,79.82c-1.91,9.37-5.91,17.23-13.89,22.5.85-3.28,1.9-6.5,2.5-9.8a19.38,19.38,0,0,0-2.52-13.21A3.23,3.23,0,0,0,135.78,78c-6.13-.41-12.28-1-18.42-1-15,.1-30.08.22-45.09.87C59,78.52,45.82,79.7,33.06,83.62a39.44,39.44,0,0,0-9,4.2c-3.24,2-3.32,4.72-.52,7.24,4,3.6,9.05,5.23,14,6.87a2.32,2.32,0,0,0,1.52-.38c10.18-5.08,21.09-7.66,32.24-9.48,19.24-3.14,38.63-3.26,58.05-2.79a8.13,8.13,0,0,1,1,.19c-5.88.65-11.47,1-17,2s-10.64,2.28-15.89,3.71a13.46,13.46,0,0,0-4.73,2.74c-2.18,1.81-2.51,4-.68,6.13,3.5,4,7.43,7.59,13.24,7.44,12.5-.31,25-.6,37.48-1.21,8.52-.42,17-1.38,25.52-2.09a2.57,2.57,0,0,1,1.67.37c-4.29.7-8.56,1.63-12.88,2.06-14.81,1.46-29.61,3.26-44.46,3.93-12.47.55-25,0-37.49-.6a136.12,136.12,0,0,1-35.6-6.16c-6-1.91-11.77-4.34-16.69-8.45C21.66,98.25,20.34,97.31,19.2,96.42Z"/><path class="cls-1" d="M289.69,67.38c1.73-3.73,4.49-5.15,7.72-5.88,10-2.25,23.49,6.29,25.75,16.28,1.36,6-1.58,10.73-7.56,12.17C305.31,92.43,291.67,84,289.31,73.7c-.22-1-.26-2-.4-3.08a11.06,11.06,0,0,1,10,1.65c2.37,1.59,4.46,3.65,6.94,5a53.58,53.58,0,0,0,8.41,3.53,5.46,5.46,0,0,0,3.38-.34,27.64,27.64,0,0,1-5.15-2,69.24,69.24,0,0,1-9.17-6.44C299.46,68.75,295.48,66.18,289.69,67.38Z"/><path class="cls-1" d="M263.06,77.76c3.26,3.26,3.74,7,3.3,11s-.94,8-1,12a9.26,9.26,0,0,0,2.89,7.18c-2.07-6.43-.49-12.67.92-18.89a12.85,12.85,0,0,0-1.88-10.71c-.26-.37-.46-.79-.76-1.33,4.05-.28,6.86,1.58,9.07,4.48,5.93,7.8,5.26,21.76-1.34,29-4.79,5.25-11.73,4.93-16-.75-6-8-5.37-22.07,1.41-29.08A40.75,40.75,0,0,1,263.06,77.76Z"/><path class="cls-1" d="M320.73,96.67c3.46,1.24,5.29,3.68,6.53,6.83a95.57,95.57,0,0,0,4.68,10.37c.77,1.42,2.43,2.37,3.93,3.31-3.31-3.94-4.91-8.6-6.06-13.41-1-4-2.93-7.15-7.05-8.93a7.7,7.7,0,0,1,7.25-.75c6.58,2.43,9.93,7.72,11.44,14.15a20,20,0,0,1,0,8.47c-1.24,5.78-6.45,8.2-11.85,5.69-6.18-2.88-9.26-8.2-10.66-14.63A14.07,14.07,0,0,1,320.73,96.67Z"/><path class="cls-1" d="M214,85.73c.46,3.52-1.34,5.91-3.63,8.11a33.9,33.9,0,0,0-4.63,4.89,38.19,38.19,0,0,0-2.78,5.71l.53.24c1.31-1.84,2.53-3.75,4-5.5a19.18,19.18,0,0,1,3.27-3.09c3.06-2.37,5.67-5,5.63-9.3l.67-.16c.75,1.36,1.86,2.64,2.2,4.1,1.85,8-6.38,18.22-14.65,18.32-4.05,0-6.43-1.83-7.27-5.74C195.5,94.9,205.43,84.3,214,85.73Z"/><path class="cls-1" d="M300.08,95.83a8.09,8.09,0,0,1-2.36,6.81c-1.58,1.6-3.27,3.11-4.79,4.77-1.91,2.08-3.38,4.42-3.28,7.5,2.06-5.14,6.81-7.8,10.3-11.6,1.45-1.58,2-4,3-6.12a6.16,6.16,0,0,1,2.56,5.16c.38,7.37-5.73,15.23-13,16.78-5.45,1.15-9.27-2-9.24-7.61,0-7.37,7.24-15.32,14.34-15.8A24.84,24.84,0,0,1,300.08,95.83Z"/><path class="cls-1" d="M23.93,167.31c-3,1.39-6.17,2.48-8.93,4.24a37.1,37.1,0,0,0-8.13,6.71C3,182.77,3.6,187.82,7.91,192s9.76,6.21,15.28,8c10.41,3.38,21.17,5.22,32,6.59,5.88.74,11.79,1.3,17.7,2.07-1.86,0-3.73.13-5.57,0-9.52-.75-19.08-1.29-28.56-2.45-10-1.23-20-3.2-29-8.13a27.52,27.52,0,0,1-7-5.49,10.44,10.44,0,0,1-.11-14.05C8.19,171.83,16.06,169.55,23.93,167.31Z"/><path class="cls-1" d="M229.81,100.84a5.61,5.61,0,0,1,4.67-1.13c5.82.76,11.39,7.07,11.47,13,.06,4.1-2.5,6.51-6.6,6.23-6.92-.46-13.09-9.06-11.11-15.65,2.53-.13,4.13,1.37,5.51,3.21a44.74,44.74,0,0,0,3.36,4.62,16.83,16.83,0,0,0,4.8,3.19c-3.3-2.46-4.88-6.15-7.19-9.29C233.51,103.35,231.55,102.27,229.81,100.84Z"/><path class="cls-1" d="M186.38,104.81c1.91,1,2.41,2.74,2.62,4.64.39,3.57,1.08,5.09,2.91,6.34-2.65-3.46-.24-8.49-3.92-11.64l.34-.62a14.76,14.76,0,0,1,3.51,1.25c3.36,2.27,4.69,8.16,2.82,11.8a4.09,4.09,0,0,1-6,1.71C184.29,115.48,183.18,108,186.38,104.81Z"/><path class="cls-1" d="M49,178.33c-.74,3.79.2,5.87,3.56,7.83,4,2.35,8.55,3.1,13.1,3.56s9,.65,13.56,1c.43,1.08.22,1.66-1.19,1.6-8.39-.37-16.74-1-24.84-3.43a20.24,20.24,0,0,1-3.56-1.51C45.15,185,44.87,181.64,49,178.33Z"/><path class="cls-1" d="M10.18,189.81c1.69-.93,2.48-.55,3.49.36,5.3,4.75,11.72,7.55,18.46,9.36,8.2,2.19,16.55,3.83,24.6,5.66C40.56,202.91,23.81,201.81,10.18,189.81Z"/><path class="cls-2" d="M87.72,135.11h7.54V160.5h16.2v6.81H87.72Z"/><path class="cls-2" d="M132,145.49a9.8,9.8,0,0,1,4.16,3.95,11.83,11.83,0,0,1,1.45,6,20,20,0,0,1-.22,2.71h-16.7a4.27,4.27,0,0,0,1.88,2.83,6.89,6.89,0,0,0,4,1.08,11.27,11.27,0,0,0,3.32-.5,8.59,8.59,0,0,0,2.76-1.43l3.77,4a13.65,13.65,0,0,1-4.58,2.76,16.36,16.36,0,0,1-5.63,1,15.12,15.12,0,0,1-6.86-1.45,10.39,10.39,0,0,1-4.46-4.11,13.4,13.4,0,0,1,0-12.51,10.63,10.63,0,0,1,4.3-4.21,13.17,13.17,0,0,1,6.39-1.5A13.78,13.78,0,0,1,132,145.49Zm-9.73,5.4A4.3,4.3,0,0,0,120.7,154h10a4.19,4.19,0,0,0-1.45-3.08,5.26,5.26,0,0,0-3.52-1.1A5.39,5.39,0,0,0,122.24,150.89Z"/><path class="cls-2" d="M159.5,165.93a14.94,14.94,0,0,1-6.07-5.93,17.66,17.66,0,0,1-2.14-8.79,17.48,17.48,0,0,1,2.19-8.81,15,15,0,0,1,6.09-5.93,18.57,18.57,0,0,1,8.93-2.09,16.84,16.84,0,0,1,12.23,5L176.09,144a10.34,10.34,0,0,0-7.41-2.95,10.17,10.17,0,0,0-5.13,1.27,8.64,8.64,0,0,0-3.45,3.56,12.08,12.08,0,0,0,0,10.58,8.66,8.66,0,0,0,3.45,3.57,10.27,10.27,0,0,0,5.13,1.26,11.92,11.92,0,0,0,4.42-.83,10.54,10.54,0,0,0,3.68-2.39l4.41,4.92a17.4,17.4,0,0,1-12.56,5A19,19,0,0,1,159.5,165.93Z"/><path class="cls-2" d="M188.67,166.32a10.46,10.46,0,0,1-4.35-4.16,13.45,13.45,0,0,1,0-12.42,10.46,10.46,0,0,1,4.35-4.16,13.85,13.85,0,0,1,6.6-1.5,14,14,0,0,1,6.62,1.5,10.45,10.45,0,0,1,4.37,4.16,13.45,13.45,0,0,1,0,12.42,10.45,10.45,0,0,1-4.37,4.16,14,14,0,0,1-6.62,1.5A13.85,13.85,0,0,1,188.67,166.32Zm10.46-6.23a6.56,6.56,0,0,0,0-8.28,5,5,0,0,0-3.86-1.61,4.94,4.94,0,0,0-3.82,1.61,6.56,6.56,0,0,0,0,8.28,4.94,4.94,0,0,0,3.82,1.61A5,5,0,0,0,199.13,160.09Z"/><path class="cls-2" d="M212.49,141.23a4,4,0,0,1,0-5.66,4.74,4.74,0,0,1,6.07,0,4,4,0,0,1,0,5.66,4.81,4.81,0,0,1-6.12,0Zm-.57,3.36h7.22v22.72h-7.22Z"/><path class="cls-2" d="M245.34,146.84a11,11,0,0,1,2.51,7.64v12.83h-7.23V154.89a5,5,0,0,0-1.1-3.45,3.86,3.86,0,0,0-3-1.24,4.37,4.37,0,0,0-3.4,1.43,5.33,5.33,0,0,0-1.29,3.72v12h-7.22V144.59h6.25l.46,2.67a9.08,9.08,0,0,1,3.2-2.35,10.07,10.07,0,0,1,4.12-.83A8.66,8.66,0,0,1,245.34,146.84Z"/><path class="cls-2" d="M270.91,165.93a14.94,14.94,0,0,1-6.07-5.93,17.77,17.77,0,0,1-2.14-8.79,17.48,17.48,0,0,1,2.19-8.81,15.05,15.05,0,0,1,6.09-5.93,18.57,18.57,0,0,1,8.93-2.09,16.84,16.84,0,0,1,12.23,5L287.5,144a10.34,10.34,0,0,0-7.41-2.95,10.17,10.17,0,0,0-5.13,1.27,8.64,8.64,0,0,0-3.45,3.56,12.08,12.08,0,0,0,0,10.58,8.66,8.66,0,0,0,3.45,3.57,10.27,10.27,0,0,0,5.13,1.26,11.88,11.88,0,0,0,4.42-.83,10.54,10.54,0,0,0,3.68-2.39L292.6,163a17.4,17.4,0,0,1-12.56,5A19,19,0,0,1,270.91,165.93Z"/><path class="cls-2" d="M319.33,144.59v22.72h-6.26l-.46-2.71a9.74,9.74,0,0,1-7.54,3.17,10.7,10.7,0,0,1-5.64-1.49,10.25,10.25,0,0,1-3.84-4.19,14.35,14.35,0,0,1,0-12.28,10.31,10.31,0,0,1,3.84-4.19,10.7,10.7,0,0,1,5.64-1.49,11,11,0,0,1,4.23.8,9.13,9.13,0,0,1,3.31,2.33l.46-2.67Zm-8.65,15.52a6.45,6.45,0,0,0,0-8.32,5.17,5.17,0,0,0-3.91-1.59,5.09,5.09,0,0,0-3.89,1.61,6.5,6.5,0,0,0,0,8.28,5.09,5.09,0,0,0,3.89,1.61A5.17,5.17,0,0,0,310.68,160.11Z"/><path class="cls-2" d="M334.32,144.59h6.17v5.79h-6.17v16.93H327V150.38h-4v-5.79h4v-1.2a9.17,9.17,0,0,1,1.31-5.06,8,8,0,0,1,3.43-3,10.89,10.89,0,0,1,4.55-1,10.29,10.29,0,0,1,6.53,2.11l-2.44,4.56a7.58,7.58,0,0,0-1.49-.74,4.61,4.61,0,0,0-1.49-.23,3.08,3.08,0,0,0-2.26.81,3.35,3.35,0,0,0-.83,2.5Z"/><path class="cls-2" d="M361.14,145.49a9.8,9.8,0,0,1,4.16,3.95,11.83,11.83,0,0,1,1.45,6,18.72,18.72,0,0,1-.23,2.71H349.83a4.27,4.27,0,0,0,1.88,2.83,6.89,6.89,0,0,0,4,1.08,11.27,11.27,0,0,0,3.32-.5,8.59,8.59,0,0,0,2.76-1.43l3.77,4A13.65,13.65,0,0,1,361,166.9a16.36,16.36,0,0,1-5.63,1,15.12,15.12,0,0,1-6.86-1.45A10.39,10.39,0,0,1,344,162.3a13.4,13.4,0,0,1,0-12.51,10.63,10.63,0,0,1,4.3-4.21,13.17,13.17,0,0,1,6.39-1.5A13.78,13.78,0,0,1,361.14,145.49Zm-9.73,5.4a4.3,4.3,0,0,0-1.54,3.08h10a4.23,4.23,0,0,0-1.45-3.08,5.26,5.26,0,0,0-3.52-1.1A5.39,5.39,0,0,0,351.41,150.89Zm2.92-15.78h7.78l-4.83,6.81h-6Z"/><path class="cls-2" d="M117,185.31v-9.8h4.13a6,6,0,0,1,2.76.62,4.49,4.49,0,0,1,1.86,1.72,5.23,5.23,0,0,1,0,5.12,4.51,4.51,0,0,1-1.86,1.73,6,6,0,0,1-2.76.61Zm1.4-1.22h2.64a4.5,4.5,0,0,0,2.11-.46,3.44,3.44,0,0,0,1.38-1.29,4,4,0,0,0,0-3.86,3.44,3.44,0,0,0-1.38-1.29,4.5,4.5,0,0,0-2.11-.46h-2.64Z"/><path class="cls-2" d="M131.69,185.4a4.39,4.39,0,0,1-2.09-.49,3.5,3.5,0,0,1-1.4-1.35,3.74,3.74,0,0,1-.5-2,4,4,0,0,1,.48-2,3.47,3.47,0,0,1,1.33-1.33,4,4,0,0,1,3.82,0,3.33,3.33,0,0,1,1.29,1.34,4.13,4.13,0,0,1,.47,2,1.41,1.41,0,0,1,0,.2,1.36,1.36,0,0,1,0,.21h-6.31v-1h5.61l-.54.34a2.41,2.41,0,0,0-.3-1.27,2.23,2.23,0,0,0-.84-.88,2.68,2.68,0,0,0-2.5,0,2.27,2.27,0,0,0-.86.88,2.74,2.74,0,0,0-.31,1.3v.22a2.5,2.5,0,0,0,.35,1.32,2.41,2.41,0,0,0,1,.91,3.05,3.05,0,0,0,1.41.32,3.09,3.09,0,0,0,1.2-.22,2.61,2.61,0,0,0,.94-.68l.74.87a3.27,3.27,0,0,1-1.25.9A4.47,4.47,0,0,1,131.69,185.4Zm-1.33-8.59,1.9-1.82H134l-2.35,1.82Z"/><path class="cls-2" d="M140,185a4,4,0,0,1-1.92-.45,3.44,3.44,0,0,1-1.35-1.27,3.5,3.5,0,0,1-.49-1.87,3.55,3.55,0,0,1,.49-1.89,3.46,3.46,0,0,1,1.35-1.25,4,4,0,0,1,1.92-.45,3.84,3.84,0,0,1,1.74.39,2.9,2.9,0,0,1,1.25,1.18,4.53,4.53,0,0,1,0,4,3.07,3.07,0,0,1-1.25,1.2A3.84,3.84,0,0,1,140,185Zm.17,3.11a6.92,6.92,0,0,1-2-.28,4.27,4.27,0,0,1-1.56-.82l.64-1a3.94,3.94,0,0,0,1.28.71,4.89,4.89,0,0,0,1.58.26,2.63,2.63,0,0,0,1.93-.62,2.57,2.57,0,0,0,.62-1.88v-1.56l.14-1.47-.07-1.49v-2h1.27v6.41a3.82,3.82,0,0,1-1,2.89A4.06,4.06,0,0,1,140.2,188.11Zm0-4.28a2.67,2.67,0,0,0,1.31-.31,2.26,2.26,0,0,0,.91-.85,2.51,2.51,0,0,0,.32-1.26,2.46,2.46,0,0,0-.32-1.26,2.2,2.2,0,0,0-.91-.85,2.78,2.78,0,0,0-1.31-.3,2.86,2.86,0,0,0-1.33.3,2.26,2.26,0,0,0-.91.85,2.37,2.37,0,0,0-.33,1.26,2.42,2.42,0,0,0,.33,1.26,2.33,2.33,0,0,0,.91.85A2.75,2.75,0,0,0,140.19,183.83Z"/><path class="cls-2" d="M149.73,185.4a3.83,3.83,0,0,1-1.67-.35,2.57,2.57,0,0,1-1.12-1.07,3.83,3.83,0,0,1-.4-1.82v-4.27h1.35V182a2.29,2.29,0,0,0,.52,1.64,2,2,0,0,0,1.48.54,2.53,2.53,0,0,0,1.22-.28,2,2,0,0,0,.79-.84,2.91,2.91,0,0,0,.28-1.34v-3.84h1.35v7.42h-1.28v-2l.21.53a2.53,2.53,0,0,1-1.09,1.15A3.3,3.3,0,0,1,149.73,185.4Z"/><path class="cls-2" d="M158.22,185.4a6,6,0,0,1-1.76-.26,4.1,4.1,0,0,1-1.31-.61l.56-1.07a4.46,4.46,0,0,0,1.18.55,4.59,4.59,0,0,0,1.43.22,2.59,2.59,0,0,0,1.35-.26.85.85,0,0,0,.41-.74.64.64,0,0,0-.25-.55,1.66,1.66,0,0,0-.67-.29,9.16,9.16,0,0,0-.91-.18c-.34-.05-.68-.12-1-.19a4.26,4.26,0,0,1-.93-.34,1.65,1.65,0,0,1-.92-1.63,1.94,1.94,0,0,1,.38-1.18,2.41,2.41,0,0,1,1.07-.77,4.3,4.3,0,0,1,1.64-.28A6.3,6.3,0,0,1,160,178a3.67,3.67,0,0,1,1.23.49l-.58,1.07a2.88,2.88,0,0,0-1.05-.46,4.51,4.51,0,0,0-1.09-.13,2.44,2.44,0,0,0-1.32.29.86.86,0,0,0-.43.73.7.7,0,0,0,.26.58,1.9,1.9,0,0,0,.67.32,9.26,9.26,0,0,0,.92.19c.33,0,.67.11,1,.19a4.07,4.07,0,0,1,.91.33,1.74,1.74,0,0,1,.67.59,1.7,1.7,0,0,1,.26,1,1.81,1.81,0,0,1-.39,1.16,2.49,2.49,0,0,1-1.1.76A4.64,4.64,0,0,1,158.22,185.4Z"/><path class="cls-2" d="M162,179v-1.11h4.73V179Zm3.61,6.4a2.34,2.34,0,0,1-1.73-.61,2.25,2.25,0,0,1-.62-1.72v-6.8h1.34V183a1.25,1.25,0,0,0,.31.92,1.09,1.09,0,0,0,.86.32,1.55,1.55,0,0,0,1.05-.35l.42,1a1.88,1.88,0,0,1-.74.39A3.24,3.24,0,0,1,165.65,185.4Z"/><path class="cls-2" d="M172,185.4a4.39,4.39,0,0,1-2.09-.49,3.57,3.57,0,0,1-1.4-1.35,4.13,4.13,0,0,1,0-3.92,3.4,3.4,0,0,1,1.33-1.33,4,4,0,0,1,3.81,0,3.33,3.33,0,0,1,1.29,1.34,4,4,0,0,1,.47,2v.2a1.65,1.65,0,0,0,0,.21H169v-1h5.62l-.55.34a2.51,2.51,0,0,0-.29-1.27,2.25,2.25,0,0,0-.85-.88,2.68,2.68,0,0,0-2.5,0,2.25,2.25,0,0,0-.85.88,2.63,2.63,0,0,0-.31,1.3v.22a2.5,2.5,0,0,0,.34,1.32,2.41,2.41,0,0,0,1,.91,3.05,3.05,0,0,0,1.41.32,3.09,3.09,0,0,0,1.2-.22,2.64,2.64,0,0,0,.95-.68l.74.87a3.38,3.38,0,0,1-1.26.9A4.4,4.4,0,0,1,172,185.4Z"/><path class="cls-2" d="M176.43,185.31v-.87l4.76-5.9.27.46h-4.94v-1.11h6v.88l-4.76,5.9-.31-.46h5.18v1.1Z"/><path class="cls-2" d="M183.91,187.38l.7-2.82.18.81a1,1,0,0,1-.68-.25.9.9,0,0,1-.27-.69.91.91,0,0,1,.94-1,.83.83,0,0,1,.65.27,1,1,0,0,1,.26.68,2.28,2.28,0,0,1,0,.27c0,.09,0,.19-.07.31l-.15.43-.66,1.94Z"/><path class="cls-2" d="M193.51,185.4a5.93,5.93,0,0,1-1.75-.26,3.9,3.9,0,0,1-1.31-.61l.56-1.07a4.39,4.39,0,0,0,1.17.55,4.69,4.69,0,0,0,1.43.22A2.54,2.54,0,0,0,195,184a.83.83,0,0,0,.41-.74.64.64,0,0,0-.25-.55,1.67,1.67,0,0,0-.66-.29c-.28-.07-.58-.13-.92-.18s-.67-.12-1-.19a4.37,4.37,0,0,1-.92-.34,1.77,1.77,0,0,1-.67-.6,1.85,1.85,0,0,1-.26-1,1.94,1.94,0,0,1,.38-1.18,2.41,2.41,0,0,1,1.07-.77,4.35,4.35,0,0,1,1.65-.28,6.37,6.37,0,0,1,1.48.18,3.61,3.61,0,0,1,1.22.49l-.57,1.07a3,3,0,0,0-1-.46,4.59,4.59,0,0,0-1.1-.13,2.42,2.42,0,0,0-1.31.29.85.85,0,0,0-.44.73.7.7,0,0,0,.26.58,2,2,0,0,0,.68.32,9,9,0,0,0,.91.19c.34,0,.67.11,1,.19a4.16,4.16,0,0,1,.92.33,1.82,1.82,0,0,1,.67.59,1.78,1.78,0,0,1,.26,1,1.81,1.81,0,0,1-.39,1.16,2.47,2.47,0,0,1-1.11.76A4.61,4.61,0,0,1,193.51,185.4Z"/><path class="cls-2" d="M200.57,185.4a3.6,3.6,0,0,1-1.45-.28,2.21,2.21,0,0,1-1-.78,2,2,0,0,1-.34-1.13,2.14,2.14,0,0,1,.29-1.09,2,2,0,0,1,.94-.78,4.26,4.26,0,0,1,1.76-.3h2.35v1h-2.3a2.06,2.06,0,0,0-1.36.33,1.12,1.12,0,0,0-.35.82,1,1,0,0,0,.44.87,1.94,1.94,0,0,0,1.2.33,2.51,2.51,0,0,0,1.33-.34,1.88,1.88,0,0,0,.81-1l.27.93a2.1,2.1,0,0,1-.94,1A3.33,3.33,0,0,1,200.57,185.4Zm2.43-.09v-1.57l-.07-.29v-2.67a1.76,1.76,0,0,0-.49-1.33A2.11,2.11,0,0,0,201,179a4.06,4.06,0,0,0-1.29.22,3.52,3.52,0,0,0-1.07.58l-.56-1a4.27,4.27,0,0,1,1.38-.7,5.58,5.58,0,0,1,1.69-.25,3.41,3.41,0,0,1,2.35.74,2.92,2.92,0,0,1,.83,2.27v4.48Z"/><path class="cls-2" d="M208.58,185.31l-3.25-7.42h1.4l2.88,6.72h-.67l2.94-6.72h1.32L210,185.31Z"/><path class="cls-2" d="M217.42,185.4a4.09,4.09,0,0,1-2-.49,3.72,3.72,0,0,1-1.38-1.35,3.89,3.89,0,0,1-.5-2,3.8,3.8,0,0,1,.5-1.95,3.7,3.7,0,0,1,1.38-1.34,4,4,0,0,1,2-.49,3.93,3.93,0,0,1,2,.49,3.46,3.46,0,0,1,1.38,1.33,4.16,4.16,0,0,1,0,3.92,3.58,3.58,0,0,1-1.38,1.35A4,4,0,0,1,217.42,185.4Zm0-1.18a2.62,2.62,0,0,0,1.29-.32,2.3,2.3,0,0,0,.88-.92,2.82,2.82,0,0,0,.33-1.38,2.76,2.76,0,0,0-.33-1.38,2.31,2.31,0,0,0-.88-.9,2.62,2.62,0,0,0-1.29-.32,2.55,2.55,0,0,0-1.27.32,2.5,2.5,0,0,0-.9.9,2.76,2.76,0,0,0-.33,1.38,2.82,2.82,0,0,0,.33,1.38,2.49,2.49,0,0,0,.9.92A2.55,2.55,0,0,0,217.42,184.22Z"/><path class="cls-2" d="M226.26,185.4a3.85,3.85,0,0,1-1.68-.35,2.57,2.57,0,0,1-1.12-1.07,3.83,3.83,0,0,1-.39-1.82v-4.27h1.34V182a2.29,2.29,0,0,0,.52,1.64,2,2,0,0,0,1.48.54,2.5,2.5,0,0,0,1.22-.28,2.09,2.09,0,0,0,.8-.84,3,3,0,0,0,.28-1.34v-3.84h1.34v7.42h-1.27v-2l.21.53A2.63,2.63,0,0,1,227.9,185,3.35,3.35,0,0,1,226.26,185.4Z"/><path class="cls-2" d="M232.61,185.31v-7.42h1.29v2l-.12-.51a2.27,2.27,0,0,1,1-1.17,3.64,3.64,0,0,1,1.79-.41v1.3h-.3a2.32,2.32,0,0,0-1.71.64,2.56,2.56,0,0,0-.63,1.87v3.69Z"/><path class="cls-2" d="M241.49,185.4a4.39,4.39,0,0,1-2.09-.49,3.5,3.5,0,0,1-1.4-1.35,3.83,3.83,0,0,1-.5-2,4,4,0,0,1,.48-2,3.47,3.47,0,0,1,1.33-1.33,4,4,0,0,1,3.82,0,3.33,3.33,0,0,1,1.29,1.34,4.13,4.13,0,0,1,.47,2,1.41,1.41,0,0,1,0,.2,1.36,1.36,0,0,1,0,.21h-6.31v-1h5.61l-.54.34a2.41,2.41,0,0,0-.3-1.27,2.16,2.16,0,0,0-.84-.88,2.68,2.68,0,0,0-2.5,0,2.27,2.27,0,0,0-.86.88,2.74,2.74,0,0,0-.3,1.3v.22a2.5,2.5,0,0,0,.34,1.32,2.41,2.41,0,0,0,1,.91,3.05,3.05,0,0,0,1.41.32,3.09,3.09,0,0,0,1.2-.22,2.61,2.61,0,0,0,.94-.68l.75.87a3.38,3.38,0,0,1-1.26.9A4.44,4.44,0,0,1,241.49,185.4Z"/><path class="cls-2" d="M246,185.31v-.87l4.76-5.9.27.46h-4.95v-1.11h6v.88l-4.76,5.9-.3-.46h5.18v1.1Z"/><path class="cls-2" d="M253.45,187.38l.7-2.82.18.81a1,1,0,0,1-.68-.25.9.9,0,0,1-.27-.69.91.91,0,0,1,.93-1,.87.87,0,0,1,.66.27,1,1,0,0,1,.25.68,1.18,1.18,0,0,1,0,.27,1.48,1.48,0,0,1-.07.31c0,.12-.08.26-.14.43l-.66,1.94Z"/><path class="cls-2" d="M263.09,185.4a3.64,3.64,0,0,1-1.45-.28,2.34,2.34,0,0,1-1-.78,2,2,0,0,1-.33-1.13,2,2,0,0,1,.29-1.09,1.92,1.92,0,0,1,.93-.78,4.29,4.29,0,0,1,1.76-.3h2.35v1h-2.29a2,2,0,0,0-1.36.33,1.08,1.08,0,0,0-.35.82,1,1,0,0,0,.43.87,2,2,0,0,0,1.21.33,2.5,2.5,0,0,0,1.32-.34,1.89,1.89,0,0,0,.82-1l.26.93a2.08,2.08,0,0,1-.93,1A3.37,3.37,0,0,1,263.09,185.4Zm2.44-.09v-1.57l-.07-.29v-2.67a1.76,1.76,0,0,0-.5-1.33,2.11,2.11,0,0,0-1.49-.47,4.06,4.06,0,0,0-1.29.22,3.46,3.46,0,0,0-1.06.58l-.56-1a4.08,4.08,0,0,1,1.38-.7,5.51,5.51,0,0,1,1.68-.25,3.44,3.44,0,0,1,2.36.74,2.92,2.92,0,0,1,.82,2.27v4.48Z"/><path class="cls-2" d="M269.29,188V177.89h1.29v2l-.08,1.73.14,1.72V188Zm3.94-2.63a3.45,3.45,0,0,1-1.69-.43,3.18,3.18,0,0,1-1.22-1.27,5.18,5.18,0,0,1,0-4.2,2.93,2.93,0,0,1,1.2-1.26,3.51,3.51,0,0,1,1.72-.42,3.81,3.81,0,0,1,1.93.48,3.58,3.58,0,0,1,1.33,1.32,4.27,4.27,0,0,1,0,4,3.54,3.54,0,0,1-1.33,1.33A3.81,3.81,0,0,1,273.23,185.4Zm-.11-1.18a2.61,2.61,0,0,0,1.28-.32,2.39,2.39,0,0,0,.89-.92,2.82,2.82,0,0,0,.33-1.38,2.76,2.76,0,0,0-.33-1.38,2.4,2.4,0,0,0-.89-.9,2.61,2.61,0,0,0-1.28-.32,2.58,2.58,0,0,0-1.27.32,2.36,2.36,0,0,0-.9.9,2.76,2.76,0,0,0-.33,1.38A2.82,2.82,0,0,0,271,183a2.34,2.34,0,0,0,.9.92A2.58,2.58,0,0,0,273.12,184.22Z"/><path class="cls-2" d="M278.84,188V177.89h1.29v2l-.08,1.73.14,1.72V188Zm3.94-2.63a3.45,3.45,0,0,1-1.69-.43,3.12,3.12,0,0,1-1.22-1.27,5.18,5.18,0,0,1,0-4.2,2.93,2.93,0,0,1,1.2-1.26,3.51,3.51,0,0,1,1.72-.42,3.84,3.84,0,0,1,1.93.48,3.58,3.58,0,0,1,1.33,1.32,4.27,4.27,0,0,1,0,4,3.54,3.54,0,0,1-1.33,1.33A3.84,3.84,0,0,1,282.78,185.4Zm-.12-1.18a2.56,2.56,0,0,0,1.28-.32,2.34,2.34,0,0,0,.9-.92,2.82,2.82,0,0,0,.33-1.38,2.76,2.76,0,0,0-.33-1.38,2.36,2.36,0,0,0-.9-.9,2.68,2.68,0,0,0-2.54,0,2.36,2.36,0,0,0-.9.9,2.76,2.76,0,0,0-.33,1.38,2.82,2.82,0,0,0,.33,1.38,2.34,2.34,0,0,0,.9.92A2.54,2.54,0,0,0,282.66,184.22Z"/><path class="cls-2" d="M288.39,185.31v-7.42h1.29v2l-.13-.51a2.28,2.28,0,0,1,1-1.17,3.62,3.62,0,0,1,1.79-.41v1.3h-.31a2.32,2.32,0,0,0-1.71.64,2.56,2.56,0,0,0-.63,1.87v3.69Z"/><path class="cls-2" d="M297.26,185.4a4.39,4.39,0,0,1-2.09-.49,3.57,3.57,0,0,1-1.4-1.35,3.83,3.83,0,0,1-.5-2,4,4,0,0,1,.49-2,3.4,3.4,0,0,1,1.33-1.33,4,4,0,0,1,3.81,0,3.35,3.35,0,0,1,1.3,1.34,4.13,4.13,0,0,1,.47,2c0,.06,0,.13,0,.2s0,.15,0,.21h-6.32v-1h5.62l-.55.34a2.51,2.51,0,0,0-.29-1.27,2.25,2.25,0,0,0-.85-.88A2.44,2.44,0,0,0,297,179a2.47,2.47,0,0,0-1.25.31,2.25,2.25,0,0,0-.85.88,2.63,2.63,0,0,0-.31,1.3v.22a2.59,2.59,0,0,0,.34,1.32,2.41,2.41,0,0,0,1,.91,3.32,3.32,0,0,0,2.61.1,2.64,2.64,0,0,0,.95-.68l.74.87a3.35,3.35,0,0,1-1.25.9A4.49,4.49,0,0,1,297.26,185.4Zm-1.33-8.59,1.91-1.82h1.71l-2.36,1.82Z"/><path class="cls-2" d="M305.76,185.4a4.19,4.19,0,0,1-2-.49,3.61,3.61,0,0,1-1.39-1.35,4,4,0,0,1,0-3.92,3.49,3.49,0,0,1,1.39-1.33,4.08,4.08,0,0,1,2-.49,3.91,3.91,0,0,1,1.8.4,2.86,2.86,0,0,1,1.23,1.18l-1,.66a2.24,2.24,0,0,0-.88-.8,2.44,2.44,0,0,0-1.13-.26,2.64,2.64,0,0,0-1.3.32,2.32,2.32,0,0,0-.91.9,2.67,2.67,0,0,0-.34,1.38,2.7,2.7,0,0,0,.34,1.39,2.34,2.34,0,0,0,.91.91,2.64,2.64,0,0,0,1.3.32,2.57,2.57,0,0,0,1.13-.26,2.24,2.24,0,0,0,.88-.8l1,.64a2.92,2.92,0,0,1-1.23,1.18A3.79,3.79,0,0,1,305.76,185.4Z"/><path class="cls-2" d="M311.1,176.46a.88.88,0,0,1-.65-.25.87.87,0,0,1,0-1.24.89.89,0,0,1,.65-.26.92.92,0,0,1,.65.25.82.82,0,0,1,.26.61.89.89,0,0,1-.25.63A.86.86,0,0,1,311.1,176.46Zm-.67,8.85v-7.42h1.34v7.42Z"/><path class="cls-2" d="M317.64,185.4a4.4,4.4,0,0,1-2.1-.49,3.57,3.57,0,0,1-1.4-1.35,3.83,3.83,0,0,1-.5-2,4,4,0,0,1,.49-2,3.4,3.4,0,0,1,1.33-1.33,4,4,0,0,1,3.81,0,3.35,3.35,0,0,1,1.3,1.34,4.13,4.13,0,0,1,.47,2c0,.06,0,.13,0,.2s0,.15,0,.21h-6.32v-1h5.62l-.55.34a2.51,2.51,0,0,0-.29-1.27,2.25,2.25,0,0,0-.85-.88,2.42,2.42,0,0,0-1.25-.31,2.47,2.47,0,0,0-1.25.31,2.25,2.25,0,0,0-.85.88,2.63,2.63,0,0,0-.31,1.3v.22a2.59,2.59,0,0,0,.34,1.32,2.41,2.41,0,0,0,1,.91,3.32,3.32,0,0,0,2.61.1,2.64,2.64,0,0,0,.95-.68l.74.87a3.35,3.35,0,0,1-1.25.9A4.47,4.47,0,0,1,317.64,185.4Z"/><path class="cls-2" d="M322.11,185.31v-.87l4.77-5.9.26.46H322.2v-1.11h6v.88l-4.76,5.9-.31-.46h5.18v1.1Z"/></g></g></svg>