<svg xmlns="http://www.w3.org/2000/svg" viewBox="0 0 366.77 208.72"><defs><style>.cls-1{fill:#bfaa84;}</style></defs><g id="Layer_2" data-name="Layer 2"><g id="Layer_1-2" data-name="Layer 1"><path class="cls-1" d="M19.21,96.42c.53,29.6,16.33,51.34,38.44,69.89a1.45,1.45,0,0,1-.73-.1c-18.7-12.78-32-29.47-37.53-51.83a74.08,74.08,0,0,1-2-22.35,6.79,6.79,0,0,1,3.23-5.2c4.59-3.29,9.92-4.83,15.29-6.14a176.91,176.91,0,0,1,33.81-4.62c21.34-1,42.65-.23,63.95.79a6.47,6.47,0,0,0,2.79-.41c-1.62-1.66-3.13-3.46-4.89-5-11.75-10-25-17.48-38.95-24C87.41,45.07,82,43,76.83,40.37a35.82,35.82,0,0,1-8.58-6.18C63.53,29.52,63.11,24,66.5,18.31S74.87,8.82,80.11,5.18C82.65,3.42,85.33,1.85,88.24,0,85.59,3.64,83,6.81,80.85,10.23c-5.71,8.89-4.46,15,4.12,21.2a71.65,71.65,0,0,0,16.51,8.49A3.46,3.46,0,0,1,103.17,41c-1.55-.44-3.1-.86-4.63-1.33-6.08-1.87-12-4.09-17.34-7.66a27,27,0,0,1-3.07-2.37c-5.21-4.78-5.83-8.72-2.53-15.51-3.28,1.22-7.55,6.45-8.07,9.79-.58,3.74,1.09,6.49,3.77,8.78,3.65,3.11,8,4.94,12.44,6.52,12.79,4.54,25.65,9,37.5,15.69a88.1,88.1,0,0,1,11.48,7.84c6.9,5.51,11.22,12.57,11.75,21.71,3.75-5,5-10.35,2.71-16.4a12.54,12.54,0,0,1,4.39,8c.24,1.86,1,2.6,2.69,2.88a15.27,15.27,0,0,1,4.28,1.36L152,79.82c-1.91,9.37-5.91,17.23-13.89,22.5.85-3.28,1.9-6.5,2.5-9.8a19.35,19.35,0,0,0-2.52-13.21A3.23,3.23,0,0,0,135.79,78c-6.13-.41-12.28-1-18.42-1-15,.1-30.08.22-45.09.87C59,78.52,45.83,79.7,33.07,83.62a39.88,39.88,0,0,0-9,4.2c-3.24,2-3.32,4.72-.52,7.24,4,3.6,9.05,5.23,14,6.87a2.32,2.32,0,0,0,1.52-.38c10.18-5.08,21.09-7.66,32.24-9.48,19.24-3.14,38.63-3.26,58.05-2.79a8.4,8.4,0,0,1,1,.19c-5.88.65-11.47,1-17,2s-10.64,2.28-15.89,3.71a13.55,13.55,0,0,0-4.73,2.74c-2.18,1.81-2.51,4-.68,6.13,3.5,4,7.43,7.59,13.24,7.44,12.5-.31,25-.6,37.48-1.21,8.52-.42,17-1.38,25.52-2.09a2.57,2.57,0,0,1,1.67.37c-4.29.7-8.56,1.63-12.88,2.06-14.81,1.46-29.61,3.26-44.46,3.93-12.47.55-25,0-37.49-.6a135.84,135.84,0,0,1-35.6-6.16c-6-1.91-11.77-4.34-16.69-8.45C21.67,98.25,20.35,97.31,19.21,96.42Z"/><path class="cls-1" d="M289.7,67.38c1.73-3.73,4.49-5.15,7.72-5.88,10-2.25,23.49,6.29,25.75,16.28,1.36,6-1.58,10.73-7.56,12.17-10.29,2.48-23.93-6-26.29-16.25-.22-1-.26-2-.4-3.08a11.07,11.07,0,0,1,10,1.65c2.37,1.59,4.46,3.65,6.94,5a54.38,54.38,0,0,0,8.41,3.53,5.45,5.45,0,0,0,3.38-.34,27.32,27.32,0,0,1-5.15-2A70.29,70.29,0,0,1,303.33,72C299.47,68.75,295.49,66.18,289.7,67.38Z"/><path class="cls-1" d="M263.07,77.76c3.26,3.26,3.74,7,3.3,11s-.94,8-1,12a9.29,9.29,0,0,0,2.89,7.18c-2.07-6.43-.49-12.67.92-18.89a12.85,12.85,0,0,0-1.88-10.71c-.26-.37-.46-.79-.76-1.33,4-.28,6.86,1.58,9.07,4.48,5.93,7.8,5.26,21.76-1.34,29-4.79,5.25-11.73,4.93-16-.75-6-8-5.37-22.07,1.41-29.08A40.53,40.53,0,0,1,263.07,77.76Z"/><path class="cls-1" d="M320.74,96.67c3.46,1.24,5.29,3.68,6.53,6.83A97.53,97.53,0,0,0,332,113.87c.77,1.42,2.43,2.37,3.93,3.31-3.31-3.94-4.91-8.6-6.06-13.41-1-4-2.93-7.15-7.05-8.93a7.71,7.71,0,0,1,7.25-.75c6.58,2.43,9.93,7.72,11.44,14.15a19.83,19.83,0,0,1,0,8.47c-1.24,5.78-6.45,8.2-11.85,5.69-6.18-2.88-9.26-8.2-10.66-14.63A14.09,14.09,0,0,1,320.74,96.67Z"/><path class="cls-1" d="M214,85.73c.46,3.52-1.34,5.91-3.63,8.11a34,34,0,0,0-4.63,4.89,38.61,38.61,0,0,0-2.78,5.71l.53.24c1.31-1.84,2.53-3.75,4-5.5a19.93,19.93,0,0,1,3.27-3.09c3.06-2.37,5.67-5,5.63-9.3l.67-.16c.75,1.36,1.86,2.64,2.2,4.1,1.85,8-6.38,18.22-14.65,18.32-4.05,0-6.43-1.83-7.27-5.74C195.51,94.9,205.44,84.3,214,85.73Z"/><path class="cls-1" d="M300.09,95.83a8.07,8.07,0,0,1-2.36,6.81c-1.58,1.6-3.27,3.11-4.79,4.77-1.91,2.08-3.38,4.42-3.28,7.5,2.06-5.14,6.81-7.8,10.3-11.6,1.45-1.58,2-4,3-6.12a6.12,6.12,0,0,1,2.56,5.16c.38,7.37-5.73,15.23-13,16.78-5.45,1.15-9.27-2-9.24-7.61,0-7.37,7.24-15.32,14.34-15.8C298.45,95.72,299.27,95.75,300.09,95.83Z"/><path class="cls-1" d="M23.94,167.31c-3,1.39-6.17,2.48-8.93,4.24a37.42,37.42,0,0,0-8.13,6.71c-3.87,4.51-3.27,9.56,1,13.74s9.76,6.21,15.28,8c10.41,3.38,21.17,5.22,32,6.59,5.88.74,11.79,1.3,17.7,2.07-1.86,0-3.73.13-5.57,0-9.52-.75-19.08-1.29-28.56-2.45-10-1.23-20-3.2-29-8.13a27.6,27.6,0,0,1-7-5.49,10.45,10.45,0,0,1-.11-14.05C8.2,171.83,16.07,169.55,23.94,167.31Z"/><path class="cls-1" d="M229.82,100.84a5.62,5.62,0,0,1,4.67-1.13c5.82.76,11.39,7.07,11.47,13,.06,4.1-2.5,6.51-6.6,6.23-6.92-.46-13.09-9.06-11.11-15.65,2.53-.13,4.13,1.37,5.51,3.21a46.14,46.14,0,0,0,3.36,4.62,17,17,0,0,0,4.8,3.19c-3.3-2.46-4.88-6.15-7.19-9.29C233.52,103.35,231.56,102.27,229.82,100.84Z"/><path class="cls-1" d="M186.39,104.81c1.91,1,2.41,2.74,2.62,4.64.39,3.57,1.08,5.09,2.91,6.34-2.65-3.46-.24-8.49-3.92-11.64l.34-.62a15,15,0,0,1,3.51,1.25c3.36,2.27,4.69,8.16,2.82,11.8a4.09,4.09,0,0,1-5.41,2,5.6,5.6,0,0,1-.59-.33C184.3,115.48,183.19,108,186.39,104.81Z"/><path class="cls-1" d="M49,178.33c-.74,3.79.2,5.87,3.56,7.83,4,2.35,8.55,3.1,13.1,3.56s9,.65,13.56,1c.43,1.08.22,1.66-1.19,1.6-8.39-.37-16.74-1-24.84-3.43a20.24,20.24,0,0,1-3.56-1.51C45.16,185,44.88,181.64,49,178.33Z"/><path class="cls-1" d="M10.19,189.81c1.69-.93,2.48-.55,3.49.36,5.3,4.75,11.72,7.55,18.46,9.36,8.2,2.19,16.55,3.83,24.6,5.66C40.57,202.91,23.82,201.81,10.19,189.81Z"/><path d="M87.73,135.11h7.54V160.5h16.2v6.81H87.73Z"/><path d="M132,145.49a9.79,9.79,0,0,1,4.16,3.95,11.76,11.76,0,0,1,1.45,6,18.92,18.92,0,0,1-.22,2.71H120.7a4.28,4.28,0,0,0,1.88,2.83,6.9,6.9,0,0,0,4,1.08,11.27,11.27,0,0,0,3.32-.5,8.44,8.44,0,0,0,2.76-1.43l3.77,4a13.65,13.65,0,0,1-4.58,2.76,16.37,16.37,0,0,1-5.63,1,15.18,15.18,0,0,1-6.86-1.45,10.48,10.48,0,0,1-4.46-4.11,13.43,13.43,0,0,1,0-12.51,10.63,10.63,0,0,1,4.3-4.21,13.16,13.16,0,0,1,6.39-1.5A13.82,13.82,0,0,1,132,145.49Zm-9.73,5.4a4.3,4.3,0,0,0-1.57,3.11h10a4.16,4.16,0,0,0-1.45-3.08,5.25,5.25,0,0,0-3.52-1.1,5.42,5.42,0,0,0-3.49,1.07Z"/><path d="M159.51,165.93a15,15,0,0,1-6.07-5.93,17.71,17.71,0,0,1-2.14-8.79,17.49,17.49,0,0,1,2.19-8.81,15,15,0,0,1,6.09-5.93,18.63,18.63,0,0,1,8.93-2.09,16.84,16.84,0,0,1,12.23,5L176.1,144a10.33,10.33,0,0,0-7.41-2.95,10.12,10.12,0,0,0-5.13,1.27,8.64,8.64,0,0,0-3.45,3.56,12.12,12.12,0,0,0,0,10.58,8.72,8.72,0,0,0,3.45,3.57,10.32,10.32,0,0,0,5.13,1.26,11.88,11.88,0,0,0,4.42-.83,10.45,10.45,0,0,0,3.68-2.39L181.2,163a17.42,17.42,0,0,1-12.56,5A19,19,0,0,1,159.51,165.93Z"/><path d="M188.68,166.32a10.51,10.51,0,0,1-4.35-4.16,13.48,13.48,0,0,1,0-12.42,10.51,10.51,0,0,1,4.35-4.16,15.31,15.31,0,0,1,13.22,0,10.38,10.38,0,0,1,4.37,4.16,13.43,13.43,0,0,1,0,12.42,10.38,10.38,0,0,1-4.37,4.16,15.31,15.31,0,0,1-13.22,0Zm10.46-6.23a6.56,6.56,0,0,0,0-8.28,5,5,0,0,0-3.86-1.61,4.94,4.94,0,0,0-3.82,1.61,6.56,6.56,0,0,0,0,8.28,4.94,4.94,0,0,0,3.82,1.61,5,5,0,0,0,3.86-1.61Z"/><path d="M212.5,141.23a4,4,0,0,1,0-5.66h0a4.73,4.73,0,0,1,6.07,0,4,4,0,0,1,0,5.66h0a4.8,4.8,0,0,1-6.12,0Zm-.57,3.36h7.22v22.72h-7.22Z"/><path d="M245.35,146.84a11,11,0,0,1,2.51,7.64v12.83h-7.23V154.89a5,5,0,0,0-1.1-3.45,3.86,3.86,0,0,0-3-1.24,4.35,4.35,0,0,0-3.4,1.43,5.33,5.33,0,0,0-1.29,3.72v12h-7.22V144.59h6.25l.46,2.67a9.17,9.17,0,0,1,3.2-2.35,10.08,10.08,0,0,1,4.12-.83A8.65,8.65,0,0,1,245.35,146.84Z"/><path d="M270.92,165.93a15,15,0,0,1-6.07-5.93,17.84,17.84,0,0,1-2.14-8.79,17.49,17.49,0,0,1,2.19-8.81,15,15,0,0,1,6.09-5.93,18.63,18.63,0,0,1,8.93-2.09,16.84,16.84,0,0,1,12.23,5L287.51,144a10.33,10.33,0,0,0-7.41-2.95,10.12,10.12,0,0,0-5.13,1.27,8.64,8.64,0,0,0-3.45,3.56,12.12,12.12,0,0,0,0,10.58A8.72,8.72,0,0,0,275,160a10.32,10.32,0,0,0,5.13,1.26,11.69,11.69,0,0,0,4.42-.83,10.45,10.45,0,0,0,3.68-2.39l4.41,4.93a17.42,17.42,0,0,1-12.56,5A19,19,0,0,1,270.92,165.93Z"/><path d="M319.34,144.59v22.72h-6.26l-.46-2.71a9.74,9.74,0,0,1-7.54,3.17,10.67,10.67,0,0,1-5.64-1.49,10.27,10.27,0,0,1-3.84-4.19,14.35,14.35,0,0,1,0-12.28,10.34,10.34,0,0,1,3.84-4.19,10.67,10.67,0,0,1,5.64-1.49,11.12,11.12,0,0,1,4.23.8,9.1,9.1,0,0,1,3.31,2.33l.46-2.67Zm-8.65,15.52a6.44,6.44,0,0,0,0-8.32,5.18,5.18,0,0,0-3.91-1.59,5.11,5.11,0,0,0-3.89,1.61,6.51,6.51,0,0,0,0,8.28,5.11,5.11,0,0,0,3.89,1.61A5.18,5.18,0,0,0,310.69,160.11Z"/><path d="M334.33,144.59h6.17v5.79h-6.17v16.93H327V150.38h-4v-5.79h4v-1.2a9.17,9.17,0,0,1,1.31-5.06,8,8,0,0,1,3.43-3,10.85,10.85,0,0,1,4.55-1,10.3,10.3,0,0,1,6.53,2.11L340.39,141a7.66,7.66,0,0,0-1.49-.74,4.42,4.42,0,0,0-1.49-.23,3.1,3.1,0,0,0-2.26.81,3.41,3.41,0,0,0-.83,2.5Z"/><path d="M361.15,145.49a9.79,9.79,0,0,1,4.16,3.95,11.76,11.76,0,0,1,1.45,6,18.94,18.94,0,0,1-.23,2.71H349.84a4.28,4.28,0,0,0,1.88,2.83,6.9,6.9,0,0,0,4,1.08,11.27,11.27,0,0,0,3.32-.5,8.44,8.44,0,0,0,2.76-1.43l3.77,4A13.59,13.59,0,0,1,361,166.9a16.37,16.37,0,0,1-5.63,1,15.18,15.18,0,0,1-6.86-1.45A10.4,10.4,0,0,1,344,162.3a13.43,13.43,0,0,1,0-12.51,10.63,10.63,0,0,1,4.3-4.21,13.16,13.16,0,0,1,6.39-1.5A13.69,13.69,0,0,1,361.15,145.49Zm-9.73,5.4a4.29,4.29,0,0,0-1.54,3.08h10a4.21,4.21,0,0,0-1.45-3.08,5.25,5.25,0,0,0-3.52-1.1A5.42,5.42,0,0,0,351.42,150.89Zm2.92-15.78h7.78l-4.83,6.81h-6Z"/><path d="M117,185.31v-9.8h4.13a6,6,0,0,1,2.76.62,4.47,4.47,0,0,1,1.86,1.72,5.19,5.19,0,0,1,0,5.12,4.5,4.5,0,0,1-1.86,1.73,6,6,0,0,1-2.76.61Zm1.4-1.22h2.64a4.52,4.52,0,0,0,2.11-.46,3.43,3.43,0,0,0,1.38-1.29,4,4,0,0,0,0-3.86,3.43,3.43,0,0,0-1.38-1.29,4.52,4.52,0,0,0-2.11-.46h-2.64Z"/><path d="M131.7,185.4a4.49,4.49,0,0,1-2.09-.49,3.56,3.56,0,0,1-1.4-1.35,3.79,3.79,0,0,1-.5-2,4.08,4.08,0,0,1,.48-2,3.47,3.47,0,0,1,1.33-1.33,4,4,0,0,1,3.82,0,3.33,3.33,0,0,1,1.29,1.34,4,4,0,0,1,.47,2,.67.67,0,0,1,0,.2.74.74,0,0,1,0,.21h-6.31v-1h5.61l-.54.34a2.36,2.36,0,0,0-.3-1.27,2.16,2.16,0,0,0-.84-.88,2.69,2.69,0,0,0-2.5,0,2.27,2.27,0,0,0-.86.88,2.8,2.8,0,0,0-.31,1.3v.22a2.56,2.56,0,0,0,.35,1.32,2.44,2.44,0,0,0,1,.91,3,3,0,0,0,1.41.32,3.08,3.08,0,0,0,1.2-.22,2.64,2.64,0,0,0,.94-.68l.74.87a3.29,3.29,0,0,1-1.25.9A4.53,4.53,0,0,1,131.7,185.4Zm-1.33-8.59,1.9-1.82H134l-2.35,1.82Z"/><path d="M140,185a4,4,0,0,1-1.92-.45,3.43,3.43,0,0,1-1.35-1.27,3.58,3.58,0,0,1-.49-1.87,3.68,3.68,0,0,1,.49-1.89,3.53,3.53,0,0,1,1.35-1.25,4,4,0,0,1,1.92-.45,3.85,3.85,0,0,1,1.74.39,2.91,2.91,0,0,1,1.25,1.18,4.53,4.53,0,0,1,0,4,3,3,0,0,1-1.25,1.2A3.87,3.87,0,0,1,140,185Zm.17,3.11a7.16,7.16,0,0,1-2-.28,4.26,4.26,0,0,1-1.56-.82l.64-1a4,4,0,0,0,1.28.71,5,5,0,0,0,1.58.26,2.61,2.61,0,0,0,1.93-.62,2.54,2.54,0,0,0,.62-1.88v-1.56l.14-1.47-.07-1.49v-2H144v6.41a3.8,3.8,0,0,1-1,2.89,4.08,4.08,0,0,1-2.8.85Zm0-4.28a2.69,2.69,0,0,0,1.31-.31,2.26,2.26,0,0,0,.91-.85,2.64,2.64,0,0,0,0-2.52,2.13,2.13,0,0,0-.91-.85,2.68,2.68,0,0,0-1.31-.3,2.82,2.82,0,0,0-1.33.3,2.32,2.32,0,0,0-.91.85,2.42,2.42,0,0,0-.33,1.26,2.52,2.52,0,0,0,.33,1.26,2.4,2.4,0,0,0,.91.85,2.76,2.76,0,0,0,1.35.31Z"/><path d="M149.74,185.4a3.88,3.88,0,0,1-1.67-.35A2.63,2.63,0,0,1,147,184a3.82,3.82,0,0,1-.4-1.82v-4.27h1.35V182a2.33,2.33,0,0,0,.52,1.64,2,2,0,0,0,1.48.54,2.55,2.55,0,0,0,1.22-.28,2,2,0,0,0,.79-.84,2.84,2.84,0,0,0,.28-1.34v-3.84h1.35v7.42h-1.28v-2l.21.53a2.53,2.53,0,0,1-1.09,1.15A3.34,3.34,0,0,1,149.74,185.4Z"/><path d="M158.23,185.4a6.2,6.2,0,0,1-1.76-.26,4,4,0,0,1-1.31-.61l.56-1.07a4.37,4.37,0,0,0,1.18.55,4.64,4.64,0,0,0,1.43.22,2.52,2.52,0,0,0,1.35-.26.84.84,0,0,0,.41-.74.63.63,0,0,0-.25-.55,1.67,1.67,0,0,0-.67-.29,7,7,0,0,0-.91-.18c-.34-.05-.68-.12-1-.19a4.51,4.51,0,0,1-.93-.34,1.66,1.66,0,0,1-.92-1.63,2,2,0,0,1,.38-1.18,2.42,2.42,0,0,1,1.07-.77,4.39,4.39,0,0,1,1.64-.28A6.37,6.37,0,0,1,160,178a3.57,3.57,0,0,1,1.23.49l-.58,1.07a2.83,2.83,0,0,0-1-.46,4.4,4.4,0,0,0-1.09-.13,2.44,2.44,0,0,0-1.32.29.88.88,0,0,0-.43.73.72.72,0,0,0,.26.58,1.89,1.89,0,0,0,.67.32c.31.08.61.14.92.19a4.41,4.41,0,0,1,1,.19,3.67,3.67,0,0,1,.91.33,1.82,1.82,0,0,1,.67.59,1.69,1.69,0,0,1,.26,1,1.81,1.81,0,0,1-.39,1.16,2.49,2.49,0,0,1-1.1.76A4.46,4.46,0,0,1,158.23,185.4Z"/><path d="M162,179v-1.11h4.73V179Zm3.61,6.4a2.35,2.35,0,0,1-1.73-.61,2.27,2.27,0,0,1-.62-1.72v-6.8h1.34V183a1.27,1.27,0,0,0,.31.92,1.07,1.07,0,0,0,.86.32,1.54,1.54,0,0,0,1.05-.35l.42,1a1.82,1.82,0,0,1-.74.39,3,3,0,0,1-.85.12Z"/><path d="M172,185.4a4.49,4.49,0,0,1-2.09-.49,3.63,3.63,0,0,1-1.4-1.35,4.13,4.13,0,0,1,0-3.92,3.4,3.4,0,0,1,1.33-1.33,4,4,0,0,1,3.81,0,3.33,3.33,0,0,1,1.29,1.34,4,4,0,0,1,.47,2v.41H169v-1h5.62l-.55.34a2.45,2.45,0,0,0-.29-1.27,2.18,2.18,0,0,0-.85-.88,2.69,2.69,0,0,0-2.5,0,2.25,2.25,0,0,0-.85.88,2.68,2.68,0,0,0-.31,1.3v.22a2.55,2.55,0,0,0,.34,1.32,2.44,2.44,0,0,0,1,.91,3,3,0,0,0,1.41.32,3.08,3.08,0,0,0,1.2-.22,2.59,2.59,0,0,0,1-.68l.74.87a3.35,3.35,0,0,1-1.26.9A4.23,4.23,0,0,1,172,185.4Z"/><path d="M176.44,185.31v-.87l4.76-5.9.27.46h-4.94v-1.11h6v.88l-4.76,5.9-.31-.46h5.18v1.1Z"/><path d="M183.92,187.38l.7-2.82.18.81a1,1,0,0,1-.68-.25,1,1,0,0,1,.55-1.69h.12a.83.83,0,0,1,.65.27,1,1,0,0,1,.26.68,1.22,1.22,0,0,1,0,.27.55.55,0,0,1-.07.31l-.15.43-.66,1.94Z"/><path d="M193.52,185.4a6.13,6.13,0,0,1-1.75-.26,4,4,0,0,1-1.31-.61l.56-1.07a4.31,4.31,0,0,0,1.17.55,4.64,4.64,0,0,0,1.43.22A2.46,2.46,0,0,0,195,184a.83.83,0,0,0,.41-.74.63.63,0,0,0-.25-.55,1.71,1.71,0,0,0-.66-.29c-.28-.07-.58-.13-.92-.18s-.67-.12-1-.19a4.43,4.43,0,0,1-.92-.34,1.67,1.67,0,0,1-.93-1.6,2,2,0,0,1,.38-1.18,2.42,2.42,0,0,1,1.07-.77,4.44,4.44,0,0,1,1.65-.28,6.12,6.12,0,0,1,1.48.18,3.52,3.52,0,0,1,1.22.49l-.57,1.07a3,3,0,0,0-1-.46,4.53,4.53,0,0,0-1.1-.13,2.4,2.4,0,0,0-1.31.29.89.89,0,0,0-.44.73.72.72,0,0,0,.26.58,2,2,0,0,0,.68.32c.3.08.61.14.91.19a4.31,4.31,0,0,1,1,.19,3.74,3.74,0,0,1,.92.33,1.82,1.82,0,0,1,.67.59,1.69,1.69,0,0,1,.26,1,1.81,1.81,0,0,1-.39,1.16,2.46,2.46,0,0,1-1.11.76A4.58,4.58,0,0,1,193.52,185.4Z"/><path d="M200.58,185.4a3.64,3.64,0,0,1-1.45-.28,2.26,2.26,0,0,1-1-.78,2.05,2.05,0,0,1-.34-1.13,2.2,2.2,0,0,1,.29-1.09,2.1,2.1,0,0,1,.94-.78,4.24,4.24,0,0,1,1.76-.3h2.35v1h-2.3a2,2,0,0,0-1.36.33,1.14,1.14,0,0,0-.35.82,1,1,0,0,0,.44.87,2,2,0,0,0,1.2.33,2.56,2.56,0,0,0,1.33-.34,1.86,1.86,0,0,0,.81-1l.27.93a2.07,2.07,0,0,1-.94,1A3.27,3.27,0,0,1,200.58,185.4Zm2.43-.09v-1.57l-.07-.29v-2.67a1.74,1.74,0,0,0-.49-1.33A2.14,2.14,0,0,0,201,179a4.06,4.06,0,0,0-1.29.22,3.58,3.58,0,0,0-1.07.58l-.56-1a4.29,4.29,0,0,1,1.38-.7,5.72,5.72,0,0,1,1.69-.25,3.43,3.43,0,0,1,2.35.74,2.9,2.9,0,0,1,.83,2.27v4.48Z"/><path d="M208.59,185.31l-3.25-7.42h1.4l2.88,6.72H209l2.94-6.72h1.32l-3.2,7.42Z"/><path d="M217.43,185.4a4.14,4.14,0,0,1-2-.49,3.8,3.8,0,0,1-1.38-1.35,4,4,0,0,1-.5-2,3.63,3.63,0,0,1,1.88-3.29,4,4,0,0,1,2-.49,3.88,3.88,0,0,1,2,.49,3.4,3.4,0,0,1,1.38,1.33,4.13,4.13,0,0,1,0,3.92,3.58,3.58,0,0,1-1.38,1.35A4,4,0,0,1,217.43,185.4Zm0-1.18a2.52,2.52,0,0,0,1.29-.32,2.29,2.29,0,0,0,.88-.92,3.05,3.05,0,0,0,0-2.76,2.24,2.24,0,0,0-.88-.9,2.52,2.52,0,0,0-1.29-.32,2.47,2.47,0,0,0-1.27.32,2.59,2.59,0,0,0-.9.9,2.76,2.76,0,0,0-.33,1.38,2.87,2.87,0,0,0,.33,1.38,2.56,2.56,0,0,0,.9.92A2.47,2.47,0,0,0,217.43,184.22Z"/><path d="M226.27,185.4a3.9,3.9,0,0,1-1.68-.35,2.63,2.63,0,0,1-1.12-1.07,3.83,3.83,0,0,1-.39-1.82v-4.27h1.34V182a2.33,2.33,0,0,0,.52,1.64,2,2,0,0,0,1.48.54,2.44,2.44,0,0,0,1.22-.28,2.09,2.09,0,0,0,.8-.84,3,3,0,0,0,.28-1.34v-3.84h1.34v7.42h-1.27v-2l.21.53a2.62,2.62,0,0,1-1.09,1.17A3.35,3.35,0,0,1,226.27,185.4Z"/><path d="M232.62,185.31v-7.42h1.29v2l-.12-.51a2.29,2.29,0,0,1,1-1.17,3.6,3.6,0,0,1,1.79-.41v1.3h-.3a2.32,2.32,0,0,0-1.71.64,2.56,2.56,0,0,0-.63,1.87v3.69Z"/><path d="M241.5,185.4a4.49,4.49,0,0,1-2.09-.49,3.56,3.56,0,0,1-1.4-1.35,3.89,3.89,0,0,1-.5-2,4.08,4.08,0,0,1,.48-2,3.47,3.47,0,0,1,1.33-1.33,4,4,0,0,1,3.82,0,3.33,3.33,0,0,1,1.29,1.34,4,4,0,0,1,.47,2,.67.67,0,0,1,0,.2.74.74,0,0,1,0,.21h-6.31v-1h5.61l-.54.34a2.36,2.36,0,0,0-.3-1.27,2.16,2.16,0,0,0-.84-.88,2.69,2.69,0,0,0-2.5,0,2.27,2.27,0,0,0-.86.88,2.79,2.79,0,0,0-.3,1.3v.22a2.55,2.55,0,0,0,.34,1.32,2.44,2.44,0,0,0,1,.91,3,3,0,0,0,1.41.32,3.08,3.08,0,0,0,1.2-.22,2.64,2.64,0,0,0,.94-.68l.75.87a3.35,3.35,0,0,1-1.26.9A4.53,4.53,0,0,1,241.5,185.4Z"/><path d="M246,185.31v-.87l4.76-5.9.27.46h-4.95v-1.11h6v.88l-4.76,5.9-.3-.46h5.18v1.1Z"/><path d="M253.46,187.38l.7-2.82.18.81a1,1,0,0,1-.68-.25,1,1,0,0,1,.55-1.69h.11a.86.86,0,0,1,.66.27,1,1,0,0,1,.25.68,1.22,1.22,0,0,1,0,.27,1.08,1.08,0,0,1-.07.31,1.63,1.63,0,0,1-.14.43l-.66,1.94Z"/><path d="M263.1,185.4a3.64,3.64,0,0,1-1.45-.28,2.32,2.32,0,0,1-1-.78,2.07,2.07,0,0,1-.33-1.13,2,2,0,0,1,.29-1.09,2,2,0,0,1,.93-.78,4.41,4.41,0,0,1,1.76-.3h2.35v1h-2.29a2,2,0,0,0-1.36.33,1.1,1.1,0,0,0-.35.82,1,1,0,0,0,.43.87,2,2,0,0,0,1.21.33,2.53,2.53,0,0,0,1.32-.34,1.88,1.88,0,0,0,.82-1l.26.93a2.05,2.05,0,0,1-.93,1A3.33,3.33,0,0,1,263.1,185.4Zm2.44-.09v-1.57l-.07-.29v-2.67a1.74,1.74,0,0,0-.5-1.33,2.12,2.12,0,0,0-1.49-.47,4.06,4.06,0,0,0-1.29.22,3.65,3.65,0,0,0-1.06.58l-.56-1a4,4,0,0,1,1.38-.7,5.65,5.65,0,0,1,1.68-.25,3.47,3.47,0,0,1,2.36.74,2.9,2.9,0,0,1,.82,2.27v4.48Z"/><path d="M269.3,188V177.89h1.29v2l-.08,1.73.14,1.72V188Zm3.94-2.63a3.45,3.45,0,0,1-1.69-.43,3.17,3.17,0,0,1-1.22-1.27,5.2,5.2,0,0,1,0-4.2,3,3,0,0,1,1.2-1.26,3.56,3.56,0,0,1,1.72-.42,3.81,3.81,0,0,1,1.93.48,3.51,3.51,0,0,1,1.33,1.32,4.23,4.23,0,0,1,0,4,3.47,3.47,0,0,1-1.33,1.33,3.75,3.75,0,0,1-1.94.48Zm-.11-1.18a2.7,2.7,0,0,0,1.28-.32,2.31,2.31,0,0,0,.89-.92,3.05,3.05,0,0,0,0-2.76,2.4,2.4,0,0,0-.89-.9,2.7,2.7,0,0,0-2.55,0,2.36,2.36,0,0,0-.9.9,2.76,2.76,0,0,0-.33,1.38A2.86,2.86,0,0,0,271,183a2.41,2.41,0,0,0,.9.92,2.62,2.62,0,0,0,1.22.3Z"/><path d="M278.85,188V177.89h1.29v2l-.08,1.73.14,1.72V188Zm3.94-2.63a3.45,3.45,0,0,1-1.69-.43,3.17,3.17,0,0,1-1.22-1.27,5.2,5.2,0,0,1,0-4.2,3,3,0,0,1,1.2-1.26,3.56,3.56,0,0,1,1.72-.42,3.81,3.81,0,0,1,1.93.48,3.51,3.51,0,0,1,1.33,1.32,4.23,4.23,0,0,1,0,4,3.47,3.47,0,0,1-1.33,1.33,3.85,3.85,0,0,1-1.94.48Zm-.12-1.18a2.49,2.49,0,0,0,1.28-.32,2.41,2.41,0,0,0,.9-.92,3.05,3.05,0,0,0,0-2.76,2.29,2.29,0,0,0-.9-.9,2.66,2.66,0,0,0-2.54,0,2.36,2.36,0,0,0-.9.9,2.76,2.76,0,0,0-.33,1.38,2.87,2.87,0,0,0,.33,1.38,2.41,2.41,0,0,0,.9.92,2.54,2.54,0,0,0,1.26.35Z"/><path d="M288.4,185.31v-7.42h1.29v2l-.13-.51a2.29,2.29,0,0,1,1-1.17,3.6,3.6,0,0,1,1.79-.41v1.3H292a2.32,2.32,0,0,0-1.71.64,2.56,2.56,0,0,0-.63,1.87v3.69Z"/><path d="M297.27,185.4a4.49,4.49,0,0,1-2.09-.49,3.63,3.63,0,0,1-1.4-1.35,3.89,3.89,0,0,1-.5-2,4.09,4.09,0,0,1,.49-2,3.4,3.4,0,0,1,1.33-1.33,4,4,0,0,1,3.81,0,3.35,3.35,0,0,1,1.3,1.34,4,4,0,0,1,.47,2V182h-6.32v-1H300l-.55.34a2.45,2.45,0,0,0-.29-1.27,2.18,2.18,0,0,0-.85-.88A2.43,2.43,0,0,0,297,179a2.49,2.49,0,0,0-1.25.31,2.25,2.25,0,0,0-.85.88,2.68,2.68,0,0,0-.31,1.3v.22a2.65,2.65,0,0,0,.34,1.32,2.44,2.44,0,0,0,1,.91,3.33,3.33,0,0,0,2.61.1,2.59,2.59,0,0,0,.95-.68l.74.87a3.4,3.4,0,0,1-1.25.9A4.56,4.56,0,0,1,297.27,185.4Zm-1.33-8.59,1.91-1.82h1.71l-2.36,1.82Z"/><path d="M305.77,185.4a4.14,4.14,0,0,1-2-.49,3.54,3.54,0,0,1-1.39-1.35,4,4,0,0,1,0-3.92,3.49,3.49,0,0,1,1.39-1.33,4.11,4.11,0,0,1,2-.49,4,4,0,0,1,1.8.4,2.86,2.86,0,0,1,1.23,1.18l-1,.66a2.19,2.19,0,0,0-.88-.8,2.34,2.34,0,0,0-1.13-.26,2.58,2.58,0,0,0-1.3.32,2.38,2.38,0,0,0-.91.9,3,3,0,0,0,0,2.77,2.34,2.34,0,0,0,.91.91,2.7,2.7,0,0,0,2.43.06,2.19,2.19,0,0,0,.88-.8l1,.64a2.86,2.86,0,0,1-1.23,1.18A3.73,3.73,0,0,1,305.77,185.4Z"/><path d="M311.11,176.46a.89.89,0,0,1-.65-.25.88.88,0,0,1,0-1.23h0a.88.88,0,0,1,.65-.26.87.87,0,0,1,.65.25.8.8,0,0,1,.26.61.84.84,0,0,1-.25.63A.85.85,0,0,1,311.11,176.46Zm-.67,8.85v-7.42h1.34v7.42Z"/><path d="M317.65,185.4a4.5,4.5,0,0,1-2.1-.49,3.63,3.63,0,0,1-1.4-1.35,3.89,3.89,0,0,1-.5-2,4.09,4.09,0,0,1,.49-2,3.4,3.4,0,0,1,1.33-1.33,4,4,0,0,1,3.81,0,3.35,3.35,0,0,1,1.3,1.34,4,4,0,0,1,.47,2V182h-6.32v-1h5.62l-.55.34a2.45,2.45,0,0,0-.29-1.27,2.18,2.18,0,0,0-.85-.88,2.47,2.47,0,0,0-1.25-.31,2.49,2.49,0,0,0-1.25.31,2.25,2.25,0,0,0-.85.88,2.68,2.68,0,0,0-.31,1.3v.22a2.65,2.65,0,0,0,.34,1.32,2.44,2.44,0,0,0,1,.91,3.33,3.33,0,0,0,2.61.1,2.59,2.59,0,0,0,.95-.68l.74.87a3.4,3.4,0,0,1-1.25.9A4.53,4.53,0,0,1,317.65,185.4Z"/><path d="M322.12,185.31v-.87l4.77-5.9.26.46h-4.94v-1.11h6v.88l-4.76,5.9-.31-.46h5.18v1.1Z"/></g></g></svg>